<?xml version="1.0" encoding="utf-8"?>
<!-- Generator: Adobe Illustrator 27.7.0, SVG Export Plug-In . SVG Version: 6.00 Build 0)  -->
<svg xmlns="http://www.w3.org/2000/svg" xmlns:xlink="http://www.w3.org/1999/xlink" version="1.1" id="Layer_1" x="0px" y="0px" viewBox="0 0 450.06 110.16" style="enable-background:new 0 0 450.06 110.16;" xml:space="preserve">
<style>
	.st0{fill:#FFFFFF;}
	.st1{fill-rule:evenodd;clip-rule:evenodd;fill:#FFFFFF;}
	.st2{fill-rule:evenodd;clip-rule:evenodd;}
	.st3{fill-rule:evenodd;clip-rule:evenodd;fill:#3368B2;}
</style>
<g>
	<g>
		<g>
			<g>
				<path d="M128.37,31.09c2.23,0,4.27,0.2,6.11,0.59c1.84,0.39,3.42,1.04,4.73,1.94c1.31,0.9,2.33,2.09,3.06,3.58      c0.72,1.49,1.08,3.33,1.08,5.52c0,2.37-0.54,4.34-1.61,5.91c-1.07,1.58-2.66,2.87-4.76,3.88c2.89,0.83,5.05,2.29,6.47,4.37      c1.42,2.08,2.14,4.59,2.14,7.52c0,2.37-0.46,4.41-1.38,6.14c-0.92,1.73-2.16,3.14-3.71,4.24c-1.56,1.1-3.33,1.91-5.32,2.43      c-1.99,0.53-4.04,0.79-6.14,0.79h-22.73V31.09H128.37z M127.05,50.08c1.84,0,3.35-0.44,4.53-1.31c1.18-0.88,1.77-2.3,1.77-4.27      c0-1.09-0.2-1.99-0.59-2.69c-0.39-0.7-0.92-1.25-1.58-1.64s-1.41-0.67-2.27-0.82c-0.85-0.15-1.74-0.23-2.66-0.23h-9.66v10.97      H127.05z M127.64,69.99c1.01,0,1.97-0.1,2.89-0.3c0.92-0.2,1.73-0.53,2.43-0.99c0.7-0.46,1.26-1.08,1.68-1.87      c0.42-0.79,0.62-1.8,0.62-3.02c0-2.41-0.68-4.13-2.04-5.16c-1.36-1.03-3.15-1.54-5.39-1.54H116.6v12.88H127.64z"/>
				<path d="M158.26,69.85c1.4,1.36,3.42,2.04,6.04,2.04c1.88,0,3.5-0.47,4.86-1.41c1.36-0.94,2.19-1.94,2.5-2.99h8.21      c-1.31,4.07-3.33,6.99-6.04,8.74c-2.72,1.75-6,2.63-9.86,2.63c-2.67,0-5.08-0.43-7.23-1.28c-2.15-0.85-3.96-2.07-5.45-3.65      s-2.64-3.46-3.45-5.65c-0.81-2.19-1.22-4.6-1.22-7.23c0-2.54,0.42-4.91,1.25-7.1c0.83-2.19,2.01-4.08,3.55-5.68      c1.53-1.6,3.36-2.86,5.49-3.78c2.12-0.92,4.48-1.38,7.06-1.38c2.89,0,5.41,0.56,7.56,1.67c2.15,1.12,3.91,2.62,5.29,4.5      c1.38,1.88,2.38,4.03,2.99,6.44c0.61,2.41,0.83,4.93,0.66,7.56h-24.51C156.09,66.31,156.86,68.5,158.26,69.85z M168.81,51.98      c-1.12-1.23-2.81-1.84-5.09-1.84c-1.49,0-2.73,0.25-3.71,0.76c-0.99,0.5-1.77,1.13-2.37,1.87c-0.59,0.75-1.01,1.53-1.25,2.37      c-0.24,0.83-0.38,1.58-0.43,2.23h15.18C170.7,55.01,169.92,53.21,168.81,51.98z"/>
				<path d="M206.82,73.67c-1.1,1.84-2.53,3.16-4.3,3.97c-1.77,0.81-3.78,1.22-6.01,1.22c-2.54,0-4.77-0.49-6.7-1.48      c-1.93-0.99-3.52-2.32-4.76-4.01c-1.25-1.69-2.19-3.62-2.83-5.81c-0.64-2.19-0.95-4.47-0.95-6.83c0-2.28,0.32-4.48,0.95-6.6      c0.63-2.12,1.58-4,2.83-5.62c1.25-1.62,2.81-2.92,4.7-3.91c1.88-0.99,4.07-1.48,6.57-1.48c2.01,0,3.93,0.43,5.75,1.28      c1.82,0.85,3.25,2.11,4.3,3.78h0.13V31.09h9.33V78h-8.87v-4.34H206.82z M206.42,56.88c-0.26-1.29-0.71-2.43-1.35-3.42      c-0.64-0.99-1.46-1.78-2.46-2.4c-1.01-0.61-2.28-0.92-3.81-0.92c-1.53,0-2.83,0.31-3.88,0.92c-1.05,0.61-1.89,1.42-2.53,2.43      c-0.64,1.01-1.1,2.16-1.38,3.45c-0.29,1.29-0.43,2.64-0.43,4.04c0,1.31,0.15,2.63,0.46,3.94c0.31,1.31,0.8,2.49,1.48,3.52      c0.68,1.03,1.53,1.86,2.56,2.5c1.03,0.64,2.27,0.95,3.71,0.95c1.53,0,2.81-0.31,3.84-0.92c1.03-0.61,1.85-1.43,2.46-2.46      c0.61-1.03,1.05-2.2,1.31-3.52c0.26-1.31,0.39-2.67,0.39-4.07C206.82,59.52,206.69,58.17,206.42,56.88z"/>
				<path d="M228.43,44.03v6.31h0.13c0.44-1.05,1.03-2.03,1.77-2.92c0.74-0.9,1.6-1.66,2.56-2.3c0.96-0.63,1.99-1.13,3.09-1.48      c1.09-0.35,2.23-0.53,3.42-0.53c0.61,0,1.29,0.11,2.04,0.33v8.67c-0.44-0.09-0.96-0.16-1.58-0.23c-0.61-0.07-1.21-0.1-1.77-0.1      c-1.71,0-3.15,0.29-4.34,0.85c-1.18,0.57-2.14,1.35-2.86,2.33c-0.72,0.99-1.24,2.14-1.54,3.45c-0.31,1.31-0.46,2.74-0.46,4.27      V78h-9.33V44.03H228.43z"/>
				<path d="M240.85,53.66c0.83-2.21,2.01-4.1,3.55-5.65c1.53-1.55,3.37-2.76,5.52-3.61c2.15-0.85,4.56-1.28,7.23-1.28      c2.67,0,5.09,0.43,7.26,1.28c2.17,0.85,4.02,2.06,5.55,3.61c1.53,1.56,2.72,3.44,3.55,5.65c0.83,2.21,1.25,4.68,1.25,7.39      c0,2.72-0.42,5.17-1.25,7.36c-0.83,2.19-2.02,4.06-3.55,5.62c-1.53,1.56-3.38,2.75-5.55,3.58s-4.59,1.25-7.26,1.25      c-2.67,0-5.08-0.42-7.23-1.25s-3.99-2.03-5.52-3.58c-1.53-1.55-2.72-3.43-3.55-5.62c-0.83-2.19-1.25-4.64-1.25-7.36      C239.6,58.34,240.02,55.87,240.85,53.66z M249.33,65.03c0.26,1.29,0.71,2.45,1.35,3.48c0.63,1.03,1.48,1.85,2.53,2.46      c1.05,0.61,2.37,0.92,3.94,0.92c1.58,0,2.9-0.31,3.97-0.92c1.07-0.61,1.93-1.43,2.56-2.46c0.63-1.03,1.08-2.19,1.35-3.48      c0.26-1.29,0.39-2.62,0.39-3.97c0-1.36-0.13-2.69-0.39-4.01c-0.26-1.31-0.71-2.47-1.35-3.48c-0.64-1.01-1.49-1.83-2.56-2.46      c-1.07-0.63-2.4-0.95-3.97-0.95c-1.58,0-2.89,0.32-3.94,0.95c-1.05,0.63-1.89,1.46-2.53,2.46c-0.64,1.01-1.08,2.17-1.35,3.48      c-0.26,1.31-0.39,2.65-0.39,4.01C248.93,62.41,249.06,63.73,249.33,65.03z"/>
				<path d="M285.37,69.56c0.42,0.72,0.95,1.31,1.61,1.77c0.66,0.46,1.41,0.8,2.27,1.02c0.85,0.22,1.74,0.33,2.66,0.33      c0.66,0,1.35-0.08,2.07-0.23c0.72-0.15,1.38-0.39,1.97-0.72c0.59-0.33,1.08-0.77,1.48-1.31c0.39-0.55,0.59-1.24,0.59-2.07      c0-1.4-0.93-2.45-2.79-3.15c-1.86-0.7-4.46-1.4-7.79-2.1c-1.36-0.31-2.68-0.67-3.97-1.08c-1.29-0.42-2.44-0.96-3.45-1.64      c-1.01-0.68-1.82-1.53-2.43-2.56c-0.61-1.03-0.92-2.29-0.92-3.78c0-2.19,0.43-3.99,1.28-5.39c0.85-1.4,1.98-2.51,3.38-3.32      c1.4-0.81,2.98-1.38,4.73-1.71c1.75-0.33,3.55-0.49,5.39-0.49c1.84,0,3.62,0.18,5.36,0.53c1.73,0.35,3.27,0.94,4.63,1.77      c1.36,0.83,2.49,1.94,3.38,3.32c0.9,1.38,1.43,3.12,1.61,5.22h-8.87c-0.13-1.8-0.81-3.01-2.04-3.65      c-1.23-0.63-2.67-0.95-4.34-0.95c-0.53,0-1.1,0.03-1.71,0.1c-0.61,0.07-1.17,0.21-1.68,0.43c-0.5,0.22-0.93,0.54-1.28,0.95      c-0.35,0.42-0.53,0.98-0.53,1.68c0,0.83,0.31,1.51,0.92,2.04c0.61,0.53,1.41,0.95,2.4,1.28c0.99,0.33,2.11,0.62,3.38,0.89      c1.27,0.26,2.56,0.55,3.88,0.85c1.36,0.31,2.68,0.68,3.97,1.12c1.29,0.44,2.44,1.02,3.45,1.74c1.01,0.72,1.82,1.62,2.43,2.69      c0.61,1.07,0.92,2.4,0.92,3.98c0,2.23-0.45,4.11-1.35,5.62c-0.9,1.51-2.07,2.73-3.52,3.65c-1.45,0.92-3.1,1.57-4.96,1.94      c-1.86,0.37-3.76,0.56-5.68,0.56c-1.97,0-3.9-0.2-5.78-0.59c-1.88-0.39-3.56-1.05-5.03-1.97c-1.47-0.92-2.67-2.14-3.61-3.65      c-0.94-1.51-1.46-3.41-1.54-5.68h8.87C284.74,67.97,284.95,68.84,285.37,69.56z"/>
				<path d="M309.78,38.78v-7.69h9.33v7.69H309.78z M319.11,44.03V78h-9.33V44.03H319.11z"/>
				<path d="M322.78,54.48c0.13-2.19,0.68-4.01,1.64-5.45c0.96-1.45,2.19-2.61,3.68-3.48c1.49-0.88,3.16-1.5,5.03-1.87      c1.86-0.37,3.73-0.56,5.62-0.56c1.71,0,3.44,0.12,5.19,0.36c1.75,0.24,3.35,0.71,4.8,1.41c1.45,0.7,2.63,1.68,3.55,2.92      c0.92,1.25,1.38,2.9,1.38,4.96v17.67c0,1.53,0.09,3,0.26,4.4c0.17,1.4,0.48,2.45,0.92,3.15h-9.46      c-0.18-0.53-0.32-1.06-0.43-1.61c-0.11-0.55-0.19-1.11-0.23-1.68c-1.49,1.53-3.24,2.61-5.26,3.22      c-2.02,0.61-4.07,0.92-6.18,0.92c-1.62,0-3.13-0.2-4.53-0.59c-1.4-0.39-2.63-1.01-3.68-1.84c-1.05-0.83-1.87-1.88-2.46-3.15      c-0.59-1.27-0.89-2.78-0.89-4.53c0-1.93,0.34-3.52,1.02-4.76c0.68-1.25,1.55-2.24,2.63-2.99c1.07-0.74,2.3-1.3,3.68-1.67      c1.38-0.37,2.77-0.67,4.17-0.89c1.4-0.22,2.78-0.39,4.14-0.53c1.36-0.13,2.56-0.33,3.61-0.59c1.05-0.26,1.88-0.65,2.5-1.15      c0.61-0.5,0.9-1.24,0.85-2.2c0-1.01-0.16-1.81-0.49-2.4c-0.33-0.59-0.77-1.05-1.31-1.38c-0.55-0.33-1.18-0.55-1.91-0.66      c-0.72-0.11-1.5-0.16-2.33-0.16c-1.84,0-3.29,0.39-4.34,1.18c-1.05,0.79-1.66,2.1-1.84,3.94H322.78z M344.34,61.38      c-0.39,0.35-0.89,0.62-1.48,0.82c-0.59,0.2-1.23,0.36-1.9,0.49c-0.68,0.13-1.39,0.24-2.14,0.33c-0.75,0.09-1.49,0.2-2.23,0.33      c-0.7,0.13-1.39,0.31-2.07,0.53c-0.68,0.22-1.27,0.52-1.77,0.89c-0.5,0.37-0.91,0.84-1.22,1.41c-0.31,0.57-0.46,1.29-0.46,2.17      c0,0.83,0.15,1.53,0.46,2.1c0.31,0.57,0.72,1.02,1.25,1.35c0.53,0.33,1.14,0.56,1.84,0.69c0.7,0.13,1.42,0.2,2.17,0.2      c1.84,0,3.26-0.31,4.27-0.92c1.01-0.61,1.75-1.35,2.23-2.2c0.48-0.85,0.78-1.72,0.89-2.6c0.11-0.88,0.16-1.58,0.16-2.1V61.38z"/>
				<path d="M366.48,44.03v4.73h0.2c1.18-1.97,2.72-3.41,4.6-4.3c1.88-0.9,3.81-1.35,5.78-1.35c2.5,0,4.54,0.34,6.14,1.02      c1.6,0.68,2.86,1.62,3.78,2.83c0.92,1.21,1.57,2.67,1.94,4.4c0.37,1.73,0.56,3.65,0.56,5.75V78h-9.33V58.82      c0-2.8-0.44-4.89-1.31-6.27c-0.88-1.38-2.43-2.07-4.67-2.07c-2.54,0-4.38,0.76-5.52,2.27c-1.14,1.51-1.71,4-1.71,7.46V78h-9.33      V44.03H366.48z"/>
				<path d="M401.14,69.56c0.42,0.72,0.95,1.31,1.61,1.77c0.66,0.46,1.41,0.8,2.27,1.02c0.85,0.22,1.74,0.33,2.66,0.33      c0.66,0,1.35-0.08,2.07-0.23c0.72-0.15,1.38-0.39,1.97-0.72c0.59-0.33,1.08-0.77,1.48-1.31c0.39-0.55,0.59-1.24,0.59-2.07      c0-1.4-0.93-2.45-2.79-3.15c-1.86-0.7-4.46-1.4-7.79-2.1c-1.36-0.31-2.68-0.67-3.97-1.08c-1.29-0.42-2.44-0.96-3.45-1.64      c-1.01-0.68-1.82-1.53-2.43-2.56c-0.61-1.03-0.92-2.29-0.92-3.78c0-2.19,0.43-3.99,1.28-5.39c0.85-1.4,1.98-2.51,3.38-3.32      c1.4-0.81,2.98-1.38,4.73-1.71c1.75-0.33,3.55-0.49,5.39-0.49c1.84,0,3.62,0.18,5.36,0.53c1.73,0.35,3.27,0.94,4.63,1.77      c1.36,0.83,2.49,1.94,3.38,3.32c0.9,1.38,1.43,3.12,1.61,5.22h-8.87c-0.13-1.8-0.81-3.01-2.04-3.65      c-1.23-0.63-2.67-0.95-4.34-0.95c-0.53,0-1.1,0.03-1.71,0.1c-0.61,0.07-1.17,0.21-1.68,0.43c-0.5,0.22-0.93,0.54-1.28,0.95      c-0.35,0.42-0.53,0.98-0.53,1.68c0,0.83,0.31,1.51,0.92,2.04c0.61,0.53,1.41,0.95,2.4,1.28c0.99,0.33,2.11,0.62,3.38,0.89      c1.27,0.26,2.56,0.55,3.88,0.85c1.36,0.31,2.68,0.68,3.97,1.12c1.29,0.44,2.44,1.02,3.45,1.74c1.01,0.72,1.82,1.62,2.43,2.69      c0.61,1.07,0.92,2.4,0.92,3.98c0,2.23-0.45,4.11-1.35,5.62c-0.9,1.51-2.07,2.73-3.52,3.65c-1.45,0.92-3.1,1.57-4.96,1.94      c-1.86,0.37-3.76,0.56-5.68,0.56c-1.97,0-3.9-0.2-5.78-0.59c-1.88-0.39-3.56-1.05-5.03-1.97c-1.47-0.92-2.67-2.14-3.61-3.65      c-0.94-1.51-1.46-3.41-1.54-5.68h8.87C400.51,67.97,400.72,68.84,401.14,69.56z"/>
			</g>
		</g>
		<g>
			<path d="M424.57,42.67c0-2.87,2.17-4.97,4.92-4.97c2.73,0,4.88,2.1,4.88,4.97c0,2.83-2.15,4.95-4.88,4.95     C426.74,47.62,424.57,45.5,424.57,42.67z M433.53,42.67c0-2.44-1.73-4.22-4.04-4.22c-2.34,0-4.05,1.78-4.05,4.22     c0,2.43,1.71,4.22,4.05,4.22C431.8,46.89,433.53,45.09,433.53,42.67z M427.47,40.09h2.46c1,0,1.83,0.51,1.83,1.46     c0,0.59-0.25,1-0.97,1.22v0.03c0.58,0.15,0.75,0.36,0.83,0.92c0.09,0.51,0.05,1.2,0.25,1.27v0.14h-1.34     c-0.15-0.08-0.15-0.68-0.22-1.17c-0.05-0.44-0.29-0.66-0.76-0.66h-0.73v1.83h-1.36V40.09z M428.83,42.31h0.87     c0.47,0,0.71-0.2,0.71-0.59c0-0.36-0.2-0.59-0.7-0.59h-0.88V42.31z"/>
		</g>
	</g>
	<path class="st3" d="M18.13,31.09h73.22c1.35,0,2.44,1.09,2.44,2.45v42.18c0,1.35-1.09,2.45-2.44,2.45H18.13   c-1.35,0-2.45-1.09-2.45-2.45V33.53C15.69,32.18,16.78,31.09,18.13,31.09z M66.43,67.21L66.43,67.21L66.43,67.21L66.43,67.21z    M67.26,41.23L67.26,41.23L67.26,41.23L67.26,41.23z M40.49,60.31v0.01v0.02C40.49,60.33,40.49,60.32,40.49,60.31L40.49,60.31z    M42.15,41.23c0.03,0,0.05,0,0.08,0L42.15,41.23L42.15,41.23z M42.23,68.04L42.23,68.04L42.23,68.04L42.23,68.04L42.23,68.04z    M42.23,58.6L42.23,58.6L42.23,58.6L42.23,58.6z M67.26,50.67C67.26,50.67,67.26,50.67,67.26,50.67L67.26,50.67L67.26,50.67z    M42.15,51.52c-0.93-0.04-1.66-0.8-1.66-1.74v-6.59l0,0v-0.23h0c0-0.93,0.74-1.69,1.66-1.73v0h0.08h4.83l0-4.27l-19.79,0   c-1.61,0-2.92,1.31-2.92,2.92c0,0.08,0.01,0.16,0.01,0.24l-0.01,0v9.74c0,1.61,1.31,2.92,2.92,2.92h2.32h9.81h7.65l0.01-1.25h-2.64   L42.15,51.52z M53.7,36.96c-1.61,0-2.92,1.31-2.92,2.92c0,0,0,0,0,0l0,0V66.3l0,0c0,0.96-0.78,1.74-1.74,1.74l0,0l0,0h-6.82l0,0h0   v0c-0.96,0-1.74-0.78-1.74-1.74l0-6.84c0.02-0.95,0.79-1.71,1.74-1.71h4.83V56.5l-19.79,0c-1.61,0-2.92,1.31-2.92,2.92v9.96   c0,1.61,1.31,2.92,2.92,2.92h14.04h15.1c1.61,0,2.92-1.31,2.92-2.92V66.3V45.46l0,0v-2.49v0c0-0.96,0.78-1.74,1.74-1.74   c0.02,0,0.03,0,0.05,0h6.14h0.01l0,0l0,0c0.96,0,1.74,0.78,1.74,1.74c0,0.02,0,0.04,0,0.06v0.17v5.72v0.84   c0,0.96-0.78,1.74-1.74,1.74l-5,0l0,1.27l19.9,0c0.02,0,0.04,0,0.06,0c1.61,0,2.92-1.31,2.92-2.92v-9.98   c0-1.61-1.31-2.92-2.92-2.92H53.7z M67.26,57.74c0.96,0,1.74,0.76,1.74,1.72l0,6.83h0c0,0.96-0.78,1.74-1.74,1.74l0,0l0,0h-4.99   v4.25h19.95c1.61,0,2.92-1.31,2.92-2.92v-9.96c0-1.61-1.31-2.92-2.92-2.92l-19.95,0v1.25"/>
</g>
</svg>
