<?xml version="1.0"?>
<svg xmlns="http://www.w3.org/2000/svg" width="169" height="48" viewBox="0 0 169 48">
    <g fill="none" fill-rule="evenodd">
        <path fill="#ED1C24" d="M121.637 48L169 48 168.978 0.002 121.637 0z"/>
        <path fill="#000" d="M59.744 39.988L59.747 39.993 59.747 39.984zM0 .381L0 22.617 8.521 22.617 8.521 14.682 18.692 14.682 18.692 9.332 8.521 9.332 8.521 5.733 19.011 5.733 19.011.381zM39.908 16.054L29.453 16.054 29.453.381 20.932.381 20.932 22.617 39.908 22.617zM52.943 5.35c3.243 0 3.465 4.077 3.495 6.149-.03 2.386-.123 6.148-3.495 6.148-3.052 0-3.4-3.762-3.4-6.148 0-2.072.253-6.148 3.4-6.148m0 17.645c7.758 0 12.396-3.917 12.396-11.497C65.339 4.045 60.7 0 52.943 0c-7.754 0-12.3 4.045-12.3 11.499 0 7.58 4.546 11.497 12.3 11.497M79.05 5.35c3.245 0 3.465 4.077 3.496 6.149-.03 2.386-.124 6.148-3.495 6.148-3.052 0-3.4-3.762-3.4-6.148 0-2.072.254-6.148 3.4-6.148m0 17.645c7.756 0 12.398-3.917 12.398-11.497C91.45 4.045 86.807 0 79.051 0c-7.757 0-12.3 4.045-12.3 11.499 0 7.58 4.543 11.497 12.3 11.497M101.585 5.35h2.353c1.719 0 3.339.288 3.339 2.294 0 2.261-1.718 2.451-3.466 2.451h-2.226V5.351zm.381 9.713h1.909c1.048 0 1.906.131 2.415 1.148.7 1.34.794 4.81 1.177 6.405h8.867c-.888-2.168-.795-5.608-2.096-7.964-.796-1.179-1.906-2.072-3.75-2.392v-.06c3.177-.765 5.308-2.486 5.308-5.895 0-4.267-3.275-5.925-8.585-5.925H93.45v22.236h8.517v-7.553zM8.806 42.027v-11.53h2.098c3.05 0 3.816 1.975 3.816 5.797 0 3.694-.7 5.733-3.785 5.733h-2.13zm14.811-5.512c0-9.012-4.48-11.177-10.836-11.177H.288v22.23h12.143c6.356 0 11.186-2.642 11.186-11.053zM45.091 30.689L45.091 25.338 25.863 25.338 25.863 47.568 45.314 47.568 45.314 42.217 34.189 42.217 34.189 39.193 44.615 39.193 44.615 33.841 34.189 33.841 34.189 30.689z"/>
        <path fill="#000" d="M59.884 47.95c2.164 0 4.514-.443 6.104-.89v-5.892c-1.558.541-3.05.86-4.61.86-3.525 0-6.068-1.945-6.068-5.765 0-3.63 2.73-5.573 6.357-5.573 1.428 0 2.857.382 4.259.828v-5.862c-2.29-.414-3.689-.702-6.042-.702-7.12 0-13.285 3.73-13.285 11.181 0 7.931 5.912 11.816 13.285 11.816M79.29 42.6c-3.054 0-3.406-3.758-3.406-6.144 0-2.073.257-6.15 3.405-6.15 3.24 0 3.464 4.077 3.495 6.15-.03 2.386-.128 6.144-3.495 6.144m0-17.646c-7.757 0-12.303 4.045-12.303 11.502 0 7.577 4.546 11.495 12.303 11.495 7.753 0 12.395-3.918 12.395-11.495 0-7.457-4.642-11.502-12.395-11.502M101.824 35.054v-4.747h2.35c1.718 0 3.337.287 3.337 2.293 0 2.26-1.715 2.454-3.464 2.454h-2.223zm4.702 6.114c.701 1.337.796 4.81 1.177 6.4h8.867c-.888-2.162-.793-5.603-2.097-7.962-.794-1.177-1.905-2.07-3.751-2.388v-.063c3.18-.766 5.309-2.485 5.309-5.894 0-4.266-3.274-5.923-8.582-5.923H93.685v22.23h8.52V40.02h1.906c1.047 0 1.907.127 2.415 1.147z"/>
        <path fill="#FFF" d="M128.23 36.836c-1.39-8.752 8.43-13.106 8.43-13.106 6.49 12.22 10.811 16.81 10.811 16.81-6.991 6.368-17.732 5.85-19.24-3.704M138.336 8.24c.58-5.823 5.61-6.232 6.792-6.05 1.182.185 5.93 1.817 4.884 7.311-1.057 5.551-8.562 8.837-8.562 8.837s-3.382-7.387-3.114-10.098m30.65 10.659l-.001-1.63H154.34v1.664s4.843-.8 4.75 3.646c-.107 4.966-6.198 11.857-6.728 12.445-1.107-1.347-2.307-2.91-3.624-4.74-4.28-6.224-6.13-9.852-6.13-9.852s8.299-3.44 10.47-8.042c1.94-4.106 1.588-9.71-5.675-12.389h-7.64c-2.714 1.136-5.634 3.339-6.666 6.62-1.848 5.857.938 12.07 2.343 14.271-2.274 1.332-10.595 5.687-13.803 11.43v9.754c1.324 3.025 3.439 4.928 6.125 5.919l.012.006h11.466c.769-.185 1.549-.358 2.344-.601 2.836-.857 5.556-2.709 8.059-5.028l.05.167s4.059 3.783 7.145 5.461h9.52c.912-.393 1.914-.88 2.642-1.386l-.002-3.85c-.594.467-1.877 1.193-4.11.875-2.45-.346-5.246-.511-10.575-6.355 4.592-5.756 7.906-12.096 8.98-14.13 1.728-3.275 5.055-4.12 5.693-4.255"/>
    </g>
</svg>
