<?xml version="1.0" encoding="UTF-8"?>
<svg xmlns="http://www.w3.org/2000/svg" id="Layer_2" viewBox="0 0 206.93 170.65"><defs><style>.cls-1{fill:#fff;}</style></defs><g id="Layer_1-2"><g><path d="m144.11,170.65H62.8c-.97,0-1.75-.78-1.75-1.75s.78-1.75,1.75-1.75h81.31c.97,0,1.75.78,1.75,1.75s-.78,1.75-1.75,1.75Z"/><path d="m196.77,147.02H10.14c-5.59,0-10.14-4.55-10.14-10.14V10.14C0,4.55,4.55,0,10.14,0h186.63c5.59,0,10.14,4.55,10.14,10.14v126.73c0,5.59-4.55,10.14-10.14,10.14ZM10.14,3.5c-3.66,0-6.64,2.98-6.64,6.64v126.73c0,3.66,2.98,6.64,6.64,6.64h186.63c3.66,0,6.64-2.98,6.64-6.64V10.14c0-3.66-2.98-6.64-6.64-6.64H10.14Z"/><path d="m124.76,170.65c-.67,0-1.31-.38-1.6-1.03l-10.6-23.63c-.4-.88,0-1.92.88-2.31s1.92,0,2.31.88l10.6,23.63c.4.88,0,1.92-.88,2.31-.23.1-.48.15-.72.15Z"/><path d="m82.16,170.65c-.24,0-.48-.05-.72-.15-.88-.4-1.28-1.43-.88-2.31l10.6-23.63c.4-.88,1.43-1.28,2.31-.88.88.4,1.28,1.43.88,2.31l-10.6,23.63c-.29.65-.93,1.03-1.6,1.03Z"/><path d="m205.18,128.4H1.76c-.97,0-1.75-.78-1.75-1.75s.78-1.75,1.75-1.75h203.42c.97,0,1.75.78,1.75,1.75s-.78,1.75-1.75,1.75Z"/><path d="m103.47,141.96c-3.21,0-5.83-2.62-5.83-5.83s2.62-5.83,5.83-5.83,5.83,2.62,5.83,5.83-2.62,5.83-5.83,5.83Zm0-8.16c-1.29,0-2.33,1.05-2.33,2.33s1.05,2.33,2.33,2.33,2.33-1.05,2.33-2.33-1.05-2.33-2.33-2.33Z"/><rect x="22.65" y="38.45" width="83.04" height="3.5"/><rect x="22.65" y="49.18" width="83.04" height="3.5"/><rect x="22.65" y="85.87" width="83.04" height="3.5"/><rect x="22.65" y="96.6" width="83.04" height="3.5"/><g><circle class="cls-1" transform="translate(6.39 108.39) rotate(-45)"/><path d="m134.03,63.08c-9.15,0-16.59-7.44-16.59-16.59s7.44-16.59,16.59-16.59,16.59,7.44,16.59,16.59-7.44,16.59-16.59,16.59Zm0-29.69c-7.22,0-13.09,5.87-13.09,13.09s5.87,13.09,13.09,13.09,13.09-5.87,13.09-13.09-5.87-13.09-13.09-13.09Z"/></g><polygon points="130.82 53.99 125.35 48.04 127.93 45.68 130.98 49 140.21 40.21 142.63 42.74 130.82 53.99"/><g><circle class="cls-1" transform="translate(13.97 200.78) rotate(-76.63)"/><path d="m134.03,108.15c-9.15,0-16.59-7.44-16.59-16.59s7.44-16.59,16.59-16.59,16.59,7.44,16.59,16.59-7.44,16.59-16.59,16.59Zm0-29.69c-7.22,0-13.09,5.87-13.09,13.09s5.87,13.09,13.09,13.09,13.09-5.87,13.09-13.09-5.87-13.09-13.09-13.09Z"/></g><g><circle class="cls-1" transform="translate(17.73 135.77) rotate(-45)"/><path d="m172.75,63.08c-9.15,0-16.59-7.44-16.59-16.59s7.44-16.59,16.59-16.59,16.59,7.44,16.59,16.59-7.44,16.59-16.59,16.59Zm0-29.69c-7.22,0-13.09,5.87-13.09,13.09s5.87,13.09,13.09,13.09,13.09-5.87,13.09-13.09-5.87-13.09-13.09-13.09Z"/></g><g><circle class="cls-1" transform="translate(43.74 238.45) rotate(-76.63)"/><path d="m172.75,108.15c-9.15,0-16.59-7.44-16.59-16.59s7.44-16.59,16.59-16.59,16.59,7.44,16.59,16.59-7.44,16.59-16.59,16.59Zm0-29.69c-7.22,0-13.09,5.87-13.09,13.09s5.87,13.09,13.09,13.09,13.09-5.87,13.09-13.09-5.87-13.09-13.09-13.09Z"/></g><rect x="1.76" y="13.39" width="203.4" height="3.5"/><rect x="171" y="80.86" width="3.5" height="21.38" transform="translate(-14.71 147.08) rotate(-44.42)"/><rect x="162.06" y="89.8" width="21.38" height="3.5" transform="translate(-13.55 150.84) rotate(-45.58)"/></g></g></svg>
