<?xml version="1.0" encoding="UTF-8"?>
<svg xmlns="http://www.w3.org/2000/svg" id="Layer_2" viewBox="0 0 192.91 161.51"><g id="Layer_1-2"><g><g><path d="m50.94,161.51l-6.63-10.67c-2.21.25-4.48.25-6.7.01l-6.58,10.46-11.95-4.68,2.85-12.24c-1.75-1.4-3.34-2.98-4.74-4.72l-12.05,2.74-5.14-11.76,10.67-6.63c-.12-1.13-.19-2.27-.19-3.41s.06-2.2.18-3.29L.2,110.74l4.68-11.95,12.24,2.85c1.4-1.75,2.98-3.34,4.72-4.74l-2.74-12.05,11.76-5.14,6.63,10.67c2.22-.25,4.48-.25,6.7-.01l6.58-10.46,11.95,4.68-2.85,12.23c1.75,1.4,3.34,2.98,4.74,4.72l12.05-2.74,5.14,11.76-10.67,6.63c.13,1.13.19,2.27.19,3.41s-.06,2.2-.18,3.29l10.46,6.58-4.68,11.95-12.23-2.85c-1.4,1.75-2.98,3.34-4.72,4.74l2.74,12.05-11.76,5.14Zm-4.86-14.45l6.24,10.03,6.33-2.77-2.6-11.42.91-.68c2.14-1.59,4.03-3.49,5.61-5.64l.68-.93,11.51,2.68,2.52-6.44-9.91-6.24.16-1.13c.19-1.29.28-2.61.28-3.92s-.1-2.71-.3-4.04l-.17-1.14,10.03-6.24-2.77-6.33-11.42,2.6-.68-.91c-1.59-2.14-3.49-4.03-5.64-5.61l-.93-.68,2.68-11.5-6.44-2.52-6.24,9.91-1.13-.17c-2.61-.38-5.34-.38-7.96.02l-1.14.17-6.24-10.03-6.33,2.77,2.6,11.42-.92.68c-2.14,1.59-4.03,3.49-5.61,5.64l-.68.93-11.51-2.68-2.52,6.44,9.91,6.24-.16,1.13c-.19,1.29-.28,2.61-.28,3.92s.1,2.71.3,4.04l.17,1.14-10.03,6.24,2.77,6.33,11.42-2.6.68.91c1.59,2.14,3.49,4.03,5.64,5.61l.93.68-2.68,11.51,6.44,2.52,6.24-9.91,1.13.17c2.62.38,5.35.38,7.96-.02l1.14-.17Z"/><path d="m40.9,138.02c-9.6,0-17.41-7.81-17.41-17.41s7.81-17.41,17.41-17.41,17.41,7.81,17.41,17.41-7.81,17.41-17.41,17.41Zm0-31.32c-7.67,0-13.91,6.24-13.91,13.91s6.24,13.91,13.91,13.91,13.91-6.24,13.91-13.91-6.24-13.91-13.91-13.91Z"/></g><g><path d="m58.46,60.98l-4.91-7.89c-1.46.14-2.95.15-4.41,0l-4.86,7.72-9.48-3.71,2.11-9.05c-1.14-.93-2.18-1.97-3.12-3.11l-8.9,2.03-4.08-9.33,7.89-4.91c-.07-.74-.11-1.5-.11-2.25s.03-1.44.1-2.16l-7.73-4.86,3.71-9.48,9.05,2.11c.93-1.14,1.97-2.18,3.11-3.12l-2.02-8.9L44.15,0l4.91,7.89c1.46-.14,2.95-.15,4.41,0L58.33.16l9.48,3.71-2.11,9.05c1.14.93,2.18,1.97,3.12,3.11l8.9-2.02,4.08,9.33-7.89,4.91c.07.74.11,1.5.11,2.25s-.03,1.44-.1,2.16l7.73,4.86-3.71,9.48-9.05-2.11c-.93,1.14-1.97,2.18-3.11,3.12l2.02,8.9-9.33,4.08Zm-3.13-11.67l4.51,7.25,3.9-1.71-1.88-8.27.91-.68c1.53-1.14,2.88-2.49,4.01-4.02l.68-.93,8.32,1.94,1.55-3.96-7.18-4.52.16-1.13c.13-.92.2-1.86.2-2.8s-.07-1.94-.21-2.88l-.17-1.14,7.25-4.51-1.7-3.9-8.27,1.88-.68-.91c-1.14-1.53-2.49-2.88-4.02-4.01l-.93-.68,1.94-8.32-3.96-1.55-4.52,7.18-1.13-.17c-1.86-.27-3.81-.27-5.68.01l-1.14.17-4.51-7.25-3.9,1.71,1.88,8.27-.91.68c-1.53,1.14-2.88,2.49-4.01,4.02l-.68.93-8.32-1.94-1.55,3.96,7.17,4.52-.16,1.13c-.13.92-.2,1.86-.2,2.8s.07,1.94.21,2.88l.17,1.14-7.25,4.51,1.7,3.9,8.27-1.88.68.91c1.14,1.53,2.49,2.88,4.02,4.01l.93.68-1.94,8.32,3.96,1.55,4.52-7.18,1.13.17c1.86.27,3.81.27,5.68-.01l1.14-.17Z"/><path d="m51.31,40.09c-5.29,0-9.6-4.3-9.6-9.6s4.31-9.6,9.6-9.6,9.6,4.3,9.6,9.6-4.3,9.6-9.6,9.6Zm0-15.69c-3.36,0-6.1,2.74-6.1,6.1s2.73,6.1,6.1,6.1,6.1-2.74,6.1-6.1-2.73-6.1-6.1-6.1Z"/></g><g><path d="m140.92,140.62l-16.33-.92-1.48-16.83c-3.06-1.11-5.97-2.57-8.68-4.37l-14.26,8.56-10.89-12.2,10.86-12.95c-.7-1.49-1.31-3.03-1.82-4.6-.5-1.51-.91-3.07-1.22-4.63l-16.14-4.03.92-16.33,16.83-1.48c1.11-3.06,2.57-5.97,4.37-8.68l-8.56-14.27,12.2-10.9,12.95,10.86c1.49-.7,3.03-1.31,4.6-1.82,1.51-.5,3.07-.91,4.63-1.22l4.03-16.14,16.33.92,1.48,16.83c3.06,1.11,5.97,2.57,8.68,4.37l14.27-8.56,10.89,12.2-10.86,12.95c.7,1.49,1.31,3.03,1.82,4.6.5,1.52.91,3.07,1.22,4.63l16.14,4.03-.92,16.33-16.83,1.48c-1.11,3.06-2.57,5.97-4.37,8.68l8.56,14.27-12.2,10.89-12.95-10.86c-1.49.7-3.03,1.31-4.6,1.82-1.51.5-3.07.91-4.63,1.22l-4.03,16.14Zm-13.11-4.25l10.41.59,3.88-15.52,1.12-.19c1.78-.31,3.55-.75,5.27-1.32,1.77-.58,3.51-1.3,5.16-2.13l1.03-.52,12.38,10.38,7.78-6.95-8.23-13.72.66-.93c2.12-3.01,3.78-6.31,4.94-9.8l.36-1.09,16.09-1.41.59-10.42-15.52-3.88-.19-1.12c-.31-1.77-.75-3.55-1.32-5.27-.58-1.77-1.3-3.51-2.13-5.16l-.52-1.03,10.38-12.38-6.95-7.78-13.72,8.23-.93-.66c-3.01-2.12-6.31-3.78-9.8-4.94l-1.09-.36-1.41-16.09-10.41-.59-3.88,15.52-1.12.19c-1.77.31-3.55.75-5.26,1.32-1.77.58-3.51,1.3-5.16,2.13l-1.03.52-12.38-10.38-7.78,6.95,8.23,13.72-.66.93c-2.12,3.01-3.78,6.31-4.94,9.8l-.36,1.09-16.09,1.41-.59,10.42,15.52,3.88.19,1.12c.31,1.78.75,3.55,1.31,5.27.58,1.77,1.3,3.51,2.13,5.16l.52,1.03-10.38,12.38,6.95,7.78,13.72-8.23.93.66c3.01,2.12,6.31,3.78,9.8,4.94l1.09.36,1.41,16.09Z"/><path d="m136.94,107.64c-9.67,0-18.69-6.15-21.87-15.83-3.95-12.05,2.64-25.06,14.69-29.01,5.84-1.91,12.07-1.44,17.55,1.33,5.48,2.77,9.55,7.52,11.46,13.35s1.44,12.07-1.33,17.55c-2.77,5.48-7.52,9.55-13.35,11.46-2.37.78-4.78,1.15-7.15,1.15Zm-.03-42.49c-2.01,0-4.05.31-6.06.97-10.21,3.35-15.8,14.38-12.45,24.6h0c3.35,10.21,14.38,15.8,24.59,12.45,4.95-1.62,8.97-5.07,11.32-9.72,2.35-4.64,2.75-9.93,1.13-14.88-2.69-8.2-10.34-13.42-18.54-13.42Z"/></g></g></g></svg>
