<?xml version="1.0" encoding="UTF-8"?>
<svg xmlns="http://www.w3.org/2000/svg" id="Layer_2" viewBox="0 0 160.68 156.37"><g id="Layer_1-2"><g><path d="m100.9,0c-32.96,0-59.77,26.81-59.77,59.77,0,11.86,3.48,22.91,9.46,32.21L3.53,136.79c-2.2,2.09-3.45,4.91-3.52,7.94-.07,3.04,1.04,5.92,3.13,8.11,2.13,2.24,5.12,3.52,8.22,3.52,2.92,0,5.7-1.11,7.83-3.13l47.06-44.8c9.78,6.99,21.74,11.12,34.65,11.12,32.96,0,59.77-26.82,59.77-59.78S133.86,0,100.9,0ZM16.78,150.7c-1.48,1.4-3.4,2.17-5.42,2.17-2.17,0-4.19-.86-5.69-2.44-1.45-1.52-2.22-3.51-2.17-5.61.05-2.1.92-4.05,2.44-5.49l46.65-44.41c3.1,4.25,6.74,8.08,10.83,11.38l-46.64,44.41Zm84.12-34.65c-31.03,0-56.27-25.25-56.27-56.28S69.87,3.5,100.9,3.5s56.27,25.24,56.27,56.27-25.24,56.28-56.27,56.28Z"/><path d="m100.9,15.22c-24.57,0-44.55,19.99-44.55,44.55s19.99,44.55,44.55,44.55,44.55-19.99,44.55-44.55S125.47,15.22,100.9,15.22Zm0,85.61c-22.64,0-41.05-18.42-41.05-41.05s18.42-41.05,41.05-41.05,41.05,18.42,41.05,41.05-18.42,41.05-41.05,41.05Z"/></g></g></svg>
