<?xml version="1.0" encoding="UTF-8"?>
<svg xmlns="http://www.w3.org/2000/svg" id="Layer_2" viewBox="0 0 195.86 163.59"><g id="Layer_1-2"><path d="m97.93,72.58c-14.16,0-25.67-11.52-25.67-25.67s11.52-25.67,25.67-25.67,25.67,11.52,25.67,25.67-11.52,25.67-25.67,25.67Zm0-47.85c-12.23,0-22.17,9.95-22.17,22.17s9.95,22.17,22.17,22.17,22.17-9.95,22.17-22.17-9.95-22.17-22.17-22.17Z"/><path d="m182.1,100.47h-64.37l18.56-26.94c2.15-3.12,3.98-6.46,5.43-9.91l.06-.14c2.7-7.13,3.62-14.52,2.75-21.96C141.8,18.33,122.19.48,98.9.01c-12.71-.27-24.72,4.5-33.8,13.39-9.08,8.9-14.08,20.79-14.08,33.5,0,8.73,2.46,17.3,7.17,24.84l19.87,28.73H11.43L0,163.59h195.86l-13.77-63.12ZM54.53,46.91c0-11.76,4.63-22.77,13.03-31,8.18-8.02,18.94-12.4,30.37-12.4.3,0,.61,0,.91,0,21.55.44,39.69,16.95,42.21,38.42.81,6.88-.05,13.71-2.55,20.31l1.64.62-1.65-.59c-1.36,3.23-3.07,6.35-5.08,9.28l-35.47,51.49-36.81-53.22c-4.31-6.91-6.59-14.84-6.59-22.92ZM14.35,103.97h66.13l17.45,25.23,17.38-25.23h63.97l12.24,56.12H4.19l10.16-56.12Z"/></g></svg>
