<?xml version="1.0" encoding="UTF-8"?>
<svg xmlns="http://www.w3.org/2000/svg" id="Layer_2" viewBox="0 0 245.97 162.94"><defs><style>.cls-1{fill:#fff;}</style></defs><g id="Layer_1-2"><g><polygon points="36.91 69.3 15.12 56.13 36.94 43.47 38.7 46.5 21.99 56.19 38.72 66.31 36.91 69.3"/><g><path class="cls-1" d="m14.17,56.16c0-2.42,1.96-4.39,4.39-4.39s4.39,1.96,4.39,4.39-1.96,4.39-4.39,4.39-4.39-1.96-4.39-4.39Z"/><path d="m18.56,62.3c-3.38,0-6.14-2.75-6.14-6.14s2.75-6.14,6.14-6.14,6.14,2.75,6.14,6.14-2.75,6.14-6.14,6.14Zm0-8.78c-1.46,0-2.64,1.18-2.64,2.64s1.18,2.64,2.64,2.64,2.64-1.18,2.64-2.64-1.18-2.64-2.64-2.64Z"/></g><g><circle class="cls-1"/><path d="m37.82,51.12c-3.38,0-6.14-2.75-6.14-6.14s2.75-6.14,6.14-6.14,6.14,2.75,6.14,6.14-2.75,6.14-6.14,6.14Zm0-8.78c-1.46,0-2.64,1.18-2.64,2.64s1.18,2.64,2.64,2.64,2.64-1.18,2.64-2.64-1.18-2.64-2.64-2.64Z"/></g><g><path class="cls-1" d="m33.43,67.8c0-2.42,1.96-4.39,4.39-4.39s4.39,1.96,4.39,4.39-1.96,4.39-4.39,4.39-4.39-1.96-4.39-4.39Z"/><path d="m37.82,73.94c-3.38,0-6.14-2.75-6.14-6.14s2.75-6.14,6.14-6.14,6.14,2.75,6.14,6.14-2.75,6.14-6.14,6.14Zm0-8.78c-1.46,0-2.64,1.18-2.64,2.64s1.18,2.64,2.64,2.64,2.64-1.18,2.64-2.64-1.18-2.64-2.64-2.64Z"/></g><path d="m57.08,91.95l-17.46-7.78c-3.05,1.01-6.23,1.52-9.46,1.52-16.63,0-30.16-13.53-30.16-30.16s13.53-30.16,30.16-30.16,30.16,13.53,30.16,30.16c0,6.36-1.95,12.42-5.64,17.56l2.39,18.87Zm-17.3-11.55l13.05,5.82-1.79-14.1.43-.57c3.51-4.65,5.36-10.19,5.36-16.03,0-14.7-11.96-26.66-26.66-26.66S3.5,40.82,3.5,55.52s11.96,26.66,26.66,26.66c3.06,0,6.08-.52,8.95-1.55l.66-.24Z"/><polygon points="222.55 69.3 200.76 56.13 222.58 43.47 224.33 46.5 207.63 56.19 224.36 66.31 222.55 69.3"/><g><path class="cls-1" d="m199.8,56.16c0-2.42,1.96-4.39,4.39-4.39s4.39,1.96,4.39,4.39-1.96,4.39-4.39,4.39-4.39-1.96-4.39-4.39Z"/><path d="m204.19,62.3c-3.38,0-6.14-2.75-6.14-6.14s2.75-6.14,6.14-6.14,6.14,2.75,6.14,6.14-2.75,6.14-6.14,6.14Zm0-8.78c-1.46,0-2.64,1.18-2.64,2.64s1.18,2.64,2.64,2.64,2.64-1.18,2.64-2.64-1.18-2.64-2.64-2.64Z"/></g><g><circle class="cls-1"/><path d="m223.46,51.12c-3.38,0-6.14-2.75-6.14-6.14s2.75-6.14,6.14-6.14,6.14,2.75,6.14,6.14-2.75,6.14-6.14,6.14Zm0-8.78c-1.46,0-2.64,1.18-2.64,2.64s1.18,2.64,2.64,2.64,2.64-1.18,2.64-2.64-1.18-2.64-2.64-2.64Z"/></g><g><path class="cls-1" d="m219.07,67.8c0-2.42,1.96-4.39,4.39-4.39s4.39,1.96,4.39,4.39-1.96,4.39-4.39,4.39-4.39-1.96-4.39-4.39Z"/><path d="m223.46,73.94c-3.38,0-6.14-2.75-6.14-6.14s2.75-6.14,6.14-6.14,6.14,2.75,6.14,6.14-2.75,6.14-6.14,6.14Zm0-8.78c-1.46,0-2.64,1.18-2.64,2.64s1.18,2.64,2.64,2.64,2.64-1.18,2.64-2.64-1.18-2.64-2.64-2.64Z"/></g><path d="m188.7,92.13l2.41-18.96c-1.85-2.63-3.25-5.53-4.18-8.62-2.32-7.71-1.51-15.87,2.3-22.97s10.16-12.29,17.87-14.61c7.71-2.32,15.87-1.51,22.97,2.3,7.1,3.81,12.29,10.16,14.61,17.87,4.8,15.92-4.25,32.78-20.17,37.58-6.09,1.83-12.45,1.72-18.44-.33l-17.38,7.73Zm27.14-62.96c-2.58,0-5.18.38-7.73,1.15-6.82,2.05-12.43,6.64-15.8,12.92-3.37,6.27-4.09,13.48-2.04,20.3.88,2.93,2.25,5.67,4.06,8.13l.42.56-1.8,14.17,12.98-5.78.67.25c5.46,2.01,11.31,2.19,16.89.5,14.08-4.24,22.07-19.14,17.83-33.22h0c-2.05-6.82-6.64-12.43-12.92-15.8-3.93-2.11-8.23-3.18-12.58-3.18Z"/><polygon points="128.3 54.28 101.35 37.99 128.33 22.33 130.08 25.36 108.21 38.05 130.11 51.28 128.3 54.28"/><g><path class="cls-1" d="m99.22,38.02c0-3.07,2.49-5.56,5.56-5.56s5.56,2.49,5.56,5.56-2.49,5.56-5.56,5.56-5.56-2.49-5.56-5.56Z"/><path d="m104.78,45.33c-4.03,0-7.31-3.28-7.31-7.31s3.28-7.31,7.31-7.31,7.31,3.28,7.31,7.31-3.28,7.31-7.31,7.31Zm0-11.13c-2.1,0-3.81,1.71-3.81,3.81s1.71,3.81,3.81,3.81,3.81-1.71,3.81-3.81-1.71-3.81-3.81-3.81Z"/></g><g><path class="cls-1" d="m123.64,23.85c0-3.07,2.49-5.56,5.56-5.56s5.56,2.49,5.56,5.56-2.49,5.56-5.56,5.56-5.56-2.49-5.56-5.56Z"/><path d="m129.21,31.16c-4.03,0-7.31-3.28-7.31-7.31s3.28-7.31,7.31-7.31,7.31,3.28,7.31,7.31-3.28,7.31-7.31,7.31Zm0-11.13c-2.1,0-3.81,1.71-3.81,3.81s1.71,3.81,3.81,3.81,3.81-1.71,3.81-3.81-1.71-3.81-3.81-3.81Z"/></g><g><path class="cls-1" d="m123.64,52.78c0-3.07,2.49-5.56,5.56-5.56s5.56,2.49,5.56,5.56-2.49,5.56-5.56,5.56-5.56-2.49-5.56-5.56Z"/><path d="m129.21,60.1c-4.03,0-7.31-3.28-7.31-7.31s3.28-7.31,7.31-7.31,7.31,3.28,7.31,7.31-3.28,7.31-7.31,7.31Zm0-11.13c-2.1,0-3.81,1.71-3.81,3.81s1.71,3.81,3.81,3.81,3.81-1.71,3.81-3.81-1.71-3.81-3.81-3.81Z"/></g><path d="m123.17,94.23l-12.27-20.14c-3.93-1.13-7.62-2.88-11-5.21-8.3-5.73-13.88-14.35-15.7-24.28-1.82-9.92.34-19.96,6.07-28.27,5.73-8.3,14.35-13.88,24.28-15.7,9.93-1.82,19.96.34,28.27,6.07,8.3,5.73,13.88,14.35,15.7,24.28,1.82,9.92-.34,19.96-6.07,28.27-4.56,6.61-10.94,11.49-18.47,14.15l-10.8,20.84Zm-1.75-90.73c-2.08,0-4.17.19-6.25.57-9,1.65-16.83,6.71-22.03,14.24-5.2,7.53-7.16,16.64-5.51,25.65,1.65,9,6.71,16.83,14.24,22.03,3.24,2.24,6.81,3.89,10.6,4.9l.68.18,9.76,16.02,8.59-16.57.67-.22c7.1-2.36,13.11-6.87,17.37-13.05,5.2-7.53,7.16-16.64,5.51-25.65-1.65-9.01-6.71-16.83-14.24-22.03-5.79-4-12.51-6.08-19.4-6.08Z"/><path d="m123.88,132.37c-8.3,0-15.05-6.75-15.05-15.05s6.75-15.05,15.05-15.05,15.05,6.75,15.05,15.05-6.75,15.05-15.05,15.05Zm0-26.61c-6.37,0-11.55,5.18-11.55,11.55s5.18,11.55,11.55,11.55,11.55-5.18,11.55-11.55-5.18-11.55-11.55-11.55Z"/><path d="m153.07,162.94c-.97,0-1.75-.78-1.75-1.75,0-10.25-5.56-19.46-14.57-24.25-3.97,2.01-8.4,3.07-12.86,3.07s-8.91-1.06-12.86-3.07c-9.02,4.76-14.58,13.97-14.58,24.25,0,.97-.78,1.75-1.75,1.75s-1.75-.78-1.75-1.75c0-11.92,6.64-22.56,17.33-27.79l.82-.4.8.44c3.64,2.01,7.79,3.07,12,3.07s8.29-1.03,12-3.07l.8-.44.82.4c10.68,5.25,17.31,15.9,17.31,27.79,0,.97-.78,1.75-1.75,1.75Z"/><path d="m74.51,120.18c-8.3,0-15.05-6.75-15.05-15.05s6.75-15.05,15.05-15.05,15.05,6.75,15.05,15.05-6.75,15.05-15.05,15.05Zm0-26.61c-6.37,0-11.55,5.18-11.55,11.55s5.18,11.55,11.55,11.55,11.55-5.18,11.55-11.55-5.18-11.55-11.55-11.55Z"/><path d="m45.33,150.76c-.97,0-1.75-.78-1.75-1.75,0-11.93,6.64-22.59,17.33-27.8l.82-.4.8.44c3.64,2.02,7.79,3.08,11.99,3.08s8.28-1.04,11.99-3.08l.8-.44.82.4c7.96,3.91,13.86,11.02,16.2,19.52.26.93-.29,1.89-1.22,2.15-.93.26-1.9-.29-2.15-1.22-1.99-7.25-6.92-13.36-13.58-16.9-4.01,2.04-8.33,3.08-12.85,3.08s-8.9-1.06-12.86-3.08c-9.02,4.75-14.58,13.97-14.58,24.26,0,.97-.78,1.75-1.75,1.75Z"/><path d="m173.32,120.18c-8.3,0-15.05-6.75-15.05-15.05s6.75-15.05,15.05-15.05,15.05,6.75,15.05,15.05-6.75,15.05-15.05,15.05Zm0-26.61c-6.37,0-11.55,5.18-11.55,11.55s5.18,11.55,11.55,11.55,11.55-5.18,11.55-11.55-5.18-11.55-11.55-11.55Z"/><path d="m202.5,150.76c-.97,0-1.75-.78-1.75-1.75,0-10.29-5.56-19.5-14.58-24.26-3.95,2.02-8.38,3.08-12.86,3.08s-8.84-1.03-12.85-3.08c-6.66,3.54-11.58,9.65-13.58,16.9-.26.93-1.22,1.48-2.15,1.22-.93-.26-1.48-1.22-1.22-2.15,2.34-8.49,8.24-15.61,16.2-19.52l.82-.4.8.44c3.72,2.05,7.75,3.08,11.99,3.08s8.35-1.07,11.99-3.08l.8-.44.82.4c10.69,5.22,17.33,15.87,17.33,27.8,0,.97-.78,1.75-1.75,1.75Z"/></g></g></svg>
