<?xml version="1.0" encoding="UTF-8"?>
<svg xmlns="http://www.w3.org/2000/svg" id="Layer_2" viewBox="0 0 181.26 172.57"><g id="Layer_1-2"><g><path d="m148.42,172.57H0V41.33L41.33,0h107.09v172.57Zm-144.92-3.5h141.42V3.5H42.78L3.5,42.78v126.29Z"/><polygon points="43.81 43.81 1.75 43.81 1.75 40.31 40.31 40.31 40.31 1.75 43.81 1.75 43.81 43.81"/><path d="m128.94,96.79h-39.28v-56.49h39.28v56.49Zm-35.78-3.5h32.28v-49.49h-32.28v49.49Z"/><rect x="19.86" y="93.29" width="49.36" height="3.5"/><rect x="19.86" y="114.58" width="107.33" height="3.5"/><rect x="19.86" y="135.86" width="107.33" height="3.5"/><rect x="19.86" y="72.01" width="49.36" height="3.5"/><path d="m160.73,172.41l.25-80.29,9.97-19.85,10.31,19.05-.25,80.77-20.28.33Zm3.74-79.46l-.23,75.9,13.28-.22.23-76.44-6.69-12.36-6.59,13.12Z"/></g></g></svg>
