<?xml version="1.0"?>
<svg xmlns="http://www.w3.org/2000/svg" width="35" height="48" viewBox="0 0 35 48" fill="none">
<g clip-path="url(#clip0_1_3007)">
<path d="M24.1882 30.0294H5.86393L5.19841 32.2193H10.0814L11.0142 35.2407H19.0419L19.9707 32.2193H24.8538L24.1882 30.0294ZM8.8542 17.7233C8.52015 18.1837 8.28009 18.7055 8.14774 19.2587C8.01539 19.8119 7.99334 20.3858 8.08285 20.9476C8.17236 21.5094 8.37168 22.048 8.66942 22.5327C8.96716 23.0174 9.35748 23.4387 9.81809 23.7726L14.203 26.9587C14.3184 27.0425 14.4162 27.1481 14.4908 27.2696C14.5654 27.3912 14.6153 27.5262 14.6377 27.667C14.6601 27.8078 14.6545 27.9517 14.6214 28.0904C14.5882 28.2291 14.528 28.3598 14.4443 28.4753L15.1046 28.9527L17.4215 25.7509C17.9584 25.0147 18.2477 24.1272 18.2479 23.216C18.2479 22.9848 18.2298 22.7542 18.1934 22.5259C18.104 21.9642 17.9043 21.4258 17.6057 20.9417C17.3071 20.4576 16.9156 20.0375 16.4538 19.7055L12.0689 16.5194C11.9533 16.4361 11.8553 16.3308 11.7807 16.2094C11.7061 16.088 11.6564 15.9531 11.6343 15.8123C11.6109 15.6718 11.6159 15.5281 11.6489 15.3895C11.6818 15.2509 11.7422 15.1204 11.8263 15.0054L11.1673 14.5267L8.8542 17.7233ZM11.4968 4.91505C10.7183 5.98279 10.299 7.27018 10.2994 8.59159C10.2994 8.92655 10.326 9.26099 10.3785 9.59181C10.5069 10.4068 10.7956 11.1882 11.2278 11.891C11.66 12.5937 12.2272 13.2038 12.8966 13.6861L18.4088 17.6779C18.7677 17.9366 19.0717 18.2639 19.3033 18.6409C19.5349 19.0179 19.6894 19.4371 19.758 19.8742C19.7862 20.051 19.8005 20.2297 19.8008 20.4087C19.7991 21.1177 19.5719 21.8078 19.1521 22.3793L19.684 22.7672L24.0274 16.7646C24.5119 16.0967 24.8601 15.34 25.052 14.5376C25.244 13.7351 25.2759 12.9028 25.146 12.088C25.0162 11.2732 24.727 10.492 24.2951 9.78901C23.8632 9.08603 23.297 8.47503 22.6289 7.99094L15.9738 3.15332C15.1087 2.524 14.9171 1.31271 15.5457 0.447156L15.0138 0.0644531L11.4968 4.91505ZM0.237549 37.0699H5.25809C6.49441 37.0699 7.46349 37.4098 8.0849 38.0273C8.32816 38.2663 8.51951 38.5529 8.64697 38.8692C8.77442 39.1855 8.83525 39.5247 8.82566 39.8655V39.8915C8.82566 41.1122 8.17701 41.792 7.39863 42.2266C8.64922 42.7066 9.42241 43.4318 9.42241 44.8848V44.9159C9.42241 46.893 7.81636 47.8815 5.37485 47.8815H0.237549V37.0699ZM4.74825 41.4418C5.79906 41.4418 6.46328 41.1019 6.46328 40.2988V40.2677C6.46328 39.5568 5.90674 39.1559 4.90652 39.1559H2.55452V41.4418H4.74825ZM5.38133 45.7981C6.43214 45.7981 7.06782 45.427 7.06782 44.6305V44.5994C7.06782 43.8729 6.52685 43.4318 5.30609 43.4318H2.55452V45.8097L5.38133 45.7981ZM10.4628 37.0699H15.4834C16.7197 37.0699 17.6888 37.4098 18.3102 38.0273C18.5529 38.2666 18.7436 38.5533 18.8706 38.8696C18.9976 39.1858 19.0581 39.5249 19.0484 39.8655V39.8915C19.0484 41.1122 18.3997 41.792 17.6213 42.2266C18.8732 42.7066 19.6451 43.4318 19.6451 44.8848V44.9159C19.6451 46.893 18.0391 47.8815 15.5975 47.8815H10.4628V37.0699ZM14.9735 41.4418C16.0244 41.4418 16.6886 41.1019 16.6886 40.2988V40.2677C16.6886 39.5568 16.132 39.1559 15.1318 39.1559H12.7811V41.4418H14.9735ZM15.6066 45.7981C16.6574 45.7981 17.2931 45.427 17.2931 44.6305V44.5994C17.2931 43.8729 16.7521 43.4318 15.5327 43.4318H12.7811V45.8097L15.6066 45.7981ZM20.6894 37.0699H25.71C26.9463 37.0699 27.9154 37.4098 28.5368 38.0273C28.78 38.2663 28.9713 38.5529 29.0987 38.8692C29.2262 39.1855 29.2871 39.5247 29.2775 39.8655V39.8915C29.2775 41.1122 28.6289 41.792 27.8505 42.2266C29.1024 42.7066 29.8743 43.4318 29.8743 44.8848V44.9159C29.8743 46.893 28.267 47.8815 25.8267 47.8815H20.6894V37.0699ZM25.2001 41.4418C26.251 41.4418 26.9152 41.1019 26.9152 40.2988V40.2677C26.9152 39.5568 26.3586 39.1559 25.3584 39.1559H23.0103V41.4418H25.2001ZM25.8332 45.7981C26.884 45.7981 27.5197 45.427 27.5197 44.6305V44.5994C27.5197 43.8729 26.9787 43.4318 25.758 43.4318H23.0077V45.8097L25.8332 45.7981ZM30.3828 45.6229V45.6113C30.3796 44.3932 31.3644 43.4033 32.5824 43.4C33.8004 43.3968 34.7904 44.3816 34.7937 45.5996V45.6113C34.7969 46.8293 33.8121 47.8193 32.5941 47.8225C31.3761 47.8258 30.3861 46.841 30.3828 45.6229ZM34.5342 45.6113V45.5996C34.5334 45.344 34.4823 45.0912 34.3838 44.8554C34.2853 44.6196 34.1414 44.4055 33.9601 44.2253C33.7789 44.0452 33.5639 43.9025 33.3275 43.8054C33.0912 43.7083 32.838 43.6587 32.5824 43.6595C32.3269 43.6602 32.074 43.7113 31.8382 43.8098C31.6024 43.9083 31.3883 44.0523 31.2081 44.2336C31.028 44.4148 30.8853 44.6298 30.7882 44.8661C30.6911 45.1025 30.6415 45.3557 30.6423 45.6113V45.6229C30.6455 46.6976 31.5193 47.5663 32.5941 47.563C33.6688 47.5598 34.5374 46.6861 34.5342 45.6113ZM31.6801 44.3762H32.718C32.8499 44.3689 32.9819 44.3881 33.1062 44.4327C33.2305 44.4773 33.3447 44.5463 33.4419 44.6357C33.5067 44.7036 33.5574 44.7838 33.5908 44.8716C33.6242 44.9594 33.6397 45.053 33.6365 45.1468V45.1585C33.6432 45.318 33.5973 45.4752 33.5058 45.606C33.4144 45.7368 33.2826 45.8339 33.1305 45.8824L33.7026 46.7218H33.0994L32.5999 45.9667H32.1926V46.7218H31.6737L31.6801 44.3762ZM32.718 45.5205C32.9774 45.5205 33.1201 45.3803 33.1201 45.1858V45.1741C33.1201 44.9496 32.9619 44.8329 32.7063 44.8329H32.2004V45.5205H32.718Z" fill="#1B1F1E"/>
</g>
<defs>
<clipPath id="clip0_1_3007">
<rect width="34.6378" height="48" fill="white" transform="translate(0.172607)"/>
</clipPath>
</defs>
</svg>
