<?xml version="1.0"?>
<svg xmlns="http://www.w3.org/2000/svg" width="98" height="32" viewBox="0 0 98 32" fill="none">
<g clip-path="url(#clip0_1_2987)">
<path d="M94.4861 19.5573L97.1915 21.3609C96.3135 22.6542 94.2132 24.8731 90.5823 24.8731C86.0733 24.8731 82.7153 21.3846 82.7153 16.9468C82.7153 12.2243 86.1089 9.02051 90.2026 9.02051C94.32 9.02051 96.3372 12.2954 96.9898 14.0634L97.3458 14.9652L86.7378 19.3556C87.5447 20.9456 88.8025 21.7524 90.5823 21.7524C92.3622 21.7524 93.5962 20.8744 94.4861 19.5573ZM86.1683 16.6976L93.2521 13.7549C92.8605 12.7701 91.6977 12.07 90.3094 12.07C88.5414 12.07 86.0852 13.6363 86.1683 16.6976Z" fill="#FF302F"/>
<path d="M77.6011 0.939453H81.0184V24.1488H77.6011V0.939453Z" fill="#20B15A"/>
<path d="M72.2142 9.63767H75.5128V23.7342C75.5128 29.584 72.0599 31.9927 67.9781 31.9927C64.1336 31.9927 61.8198 29.406 60.9536 27.3057L63.9794 26.048C64.5252 27.3413 65.8423 28.872 67.9781 28.872C70.6004 28.872 72.2142 27.2464 72.2142 24.2088V23.0697H72.0955C71.3124 24.0189 69.8173 24.8733 67.9188 24.8733C63.9556 24.8733 60.3247 21.4203 60.3247 16.9707C60.3247 12.4973 63.9556 9.00879 67.9188 9.00879C69.8054 9.00879 71.3124 9.85126 72.0955 10.7768H72.2142V9.63767ZM72.4515 16.9707C72.4515 14.1704 70.5886 12.1295 68.2154 12.1295C65.8185 12.1295 63.8014 14.1704 63.8014 16.9707C63.8014 19.7354 65.8185 21.7407 68.2154 21.7407C70.5886 21.7526 72.4515 19.7354 72.4515 16.9707Z" fill="#3686F7"/>
<path d="M41.565 16.9108C41.565 21.4791 38.0053 24.8371 33.6387 24.8371C29.2721 24.8371 25.7124 21.4673 25.7124 16.9108C25.7124 12.3188 29.2721 8.97266 33.6387 8.97266C38.0053 8.97266 41.565 12.3188 41.565 16.9108ZM38.1002 16.9108C38.1002 14.0631 36.0356 12.1052 33.6387 12.1052C31.2418 12.1052 29.1772 14.0631 29.1772 16.9108C29.1772 19.7349 31.2418 21.7165 33.6387 21.7165C36.0356 21.7165 38.1002 19.7349 38.1002 16.9108Z" fill="#FF302F"/>
<path d="M58.877 16.9468C58.877 21.5151 55.3173 24.8731 50.9507 24.8731C46.5841 24.8731 43.0244 21.5151 43.0244 16.9468C43.0244 12.3548 46.5841 9.02051 50.9507 9.02051C55.3173 9.02051 58.877 12.3429 58.877 16.9468ZM55.4004 16.9468C55.4004 14.099 53.3357 12.1412 50.9389 12.1412C48.542 12.1412 46.4773 14.099 46.4773 16.9468C46.4773 19.7709 48.542 21.7524 50.9389 21.7524C53.3476 21.7524 55.4004 19.759 55.4004 16.9468Z" fill="#FFBA40"/>
<path d="M12.6837 21.3963C7.71194 21.3963 3.81998 17.3856 3.81998 12.4139C3.81998 7.44216 7.71194 3.43154 12.6837 3.43154C15.3653 3.43154 17.3232 4.48759 18.7708 5.84028L21.1558 3.45527C19.1386 1.52116 16.4451 0.0498047 12.6837 0.0498047C5.87275 0.0498047 0.141602 5.60297 0.141602 12.4139C0.141602 19.2248 5.87275 24.778 12.6837 24.778C16.3621 24.778 19.1386 23.5677 21.3101 21.3132C23.5408 19.0824 24.229 15.9499 24.229 13.4106C24.229 12.6156 24.1341 11.7969 24.0273 11.1917H12.6837V14.4904H20.7642C20.5269 16.555 19.8743 17.9671 18.9132 18.9282C17.7504 20.1029 15.9112 21.3963 12.6837 21.3963Z" fill="#3686F7"/>
</g>
<defs>
<clipPath id="clip0_1_2987">
<rect width="97.5238" height="32" fill="white"/>
</clipPath>
</defs>
</svg>
