<?xml version="1.0"?>
<svg xmlns="http://www.w3.org/2000/svg" width="140" height="32" viewBox="0 0 140 32" fill="none">
<g clip-path="url(#clip0_1_2995)">
<path d="M78.2325 16.06C77.1449 14.9721 75.8073 14.1672 74.3368 13.7156C72.8662 13.2641 71.3074 13.1796 69.7967 13.4697C68.2859 13.7597 66.8693 14.4155 65.6705 15.3795C64.4717 16.3436 63.5274 17.5866 62.92 19C62.4317 20.1422 62.1841 21.3728 62.1925 22.615C62.1852 23.8363 62.4219 25.0467 62.8885 26.1753C63.3551 27.3039 64.0424 28.328 64.91 29.1875C65.7681 30.0271 66.7776 30.6964 67.885 31.16C70.2453 32.1287 72.8922 32.1287 75.2525 31.16C76.3599 30.6964 77.3694 30.0271 78.2275 29.1875C79.0959 28.3283 79.784 27.3044 80.2515 26.1758C80.719 25.0472 80.9565 23.8366 80.95 22.615C80.9587 21.3728 80.7111 20.1421 80.2225 19C79.7503 17.9034 79.0751 16.9059 78.2325 16.06ZM76.4425 24.88C76.2188 25.5276 75.8658 26.123 75.405 26.63C74.9433 27.119 74.3848 27.5065 73.765 27.7675C72.3558 28.3259 70.7867 28.3259 69.3775 27.7675C68.7575 27.5068 68.1989 27.1193 67.7375 26.63C67.2752 26.1236 66.9213 25.5281 66.6975 24.88C66.1975 23.4097 66.1975 21.8152 66.6975 20.345C66.9214 19.6969 67.2753 19.1014 67.7375 18.595C68.199 18.1058 68.7576 17.7184 69.3775 17.4575C70.7864 16.8973 72.3561 16.8973 73.765 17.4575C74.3848 17.7185 74.9434 18.1059 75.405 18.595C75.8656 19.1022 76.2185 19.6975 76.4425 20.345C76.9422 21.8154 76.9422 23.4096 76.4425 24.88ZM120.355 17.12V13.78H106.4V17.2675H115.317L106.077 28.0875V31.4625H120.857V27.975H111.048L120.355 17.12ZM129.555 27.975L138.863 17.12V13.78H124.908V17.2675H133.825L124.585 28.0875V31.4625H139.365V27.975H129.555ZM53.9525 13.94C51.3425 12.86 48.14 13.305 46.0675 14.975V7.5325H42.1525V31.46H46.07V22.0525C46.07 20.2625 46.585 17.26 50.0275 17.26C53.1875 17.26 54.31 19.8425 54.31 22.0525V31.4575H58.2225V20.765C58.22 17.55 56.665 15.0625 53.9525 13.94ZM97.69 23.435C97.6861 23.9884 97.6096 24.539 97.4625 25.0725C97.3137 25.6141 97.0643 26.123 96.7275 26.5725C96.3773 27.0348 95.9268 27.4118 95.41 27.675C94.7692 27.9541 94.0777 28.0981 93.3788 28.0981C92.6798 28.0981 91.9883 27.9541 91.3475 27.675C90.8308 27.4116 90.3803 27.0347 90.03 26.5725C89.6926 26.1233 89.4432 25.6144 89.295 25.0725C89.1476 24.539 89.0703 23.9885 89.065 23.435V13.75H85.18V23.825C85.18 27.575 86.835 30.075 90.1675 31.325C92.2572 32.0802 94.5463 32.0749 96.6325 31.31C100.723 29.765 101.58 26.38 101.58 23.81V13.7925H97.69V23.435ZM17.57 31.46H28.125V13.59L6.9975 7.5325V0H0V31.46H10.555V21.555H17.57V31.46Z" fill="#1B1F1E"/>
</g>
<defs>
<clipPath id="clip0_1_2995">
<rect width="139.5" height="32" fill="white"/>
</clipPath>
</defs>
</svg>
