<?xml version="1.0"?>
<svg xmlns="http://www.w3.org/2000/svg" width="85" height="32" viewBox="0 0 85 32" fill="none">
<g clip-path="url(#clip0_1_2998)">
<path d="M68.5871 18.8804L69.9572 18.5679C69.986 18.5614 70.0335 18.5506 70.0916 18.532C70.4697 18.4317 70.7936 18.1903 70.9952 17.8589C71.1968 17.5275 71.2605 17.1317 71.1727 16.7551C71.1707 16.7468 71.1689 16.739 71.1669 16.7308C71.122 16.5503 71.0431 16.3797 70.9345 16.2279C70.781 16.0357 70.591 15.8749 70.3752 15.7544C70.1211 15.6113 69.8552 15.4898 69.5803 15.3911L68.0783 14.8499C67.2352 14.5405 66.3924 14.2389 65.5415 13.9449C64.9897 13.7511 64.5222 13.581 64.116 13.457C64.0393 13.4336 63.9547 13.4104 63.886 13.3869C63.3949 13.2384 63.0498 13.1768 62.7578 13.1747C62.5628 13.1677 62.3685 13.2026 62.1885 13.2772C62.0009 13.3571 61.8324 13.4751 61.694 13.6236C61.6252 13.7008 61.5605 13.7816 61.5001 13.8654C61.4436 13.9509 61.3917 14.0393 61.3447 14.1302C61.2929 14.2277 61.2484 14.3289 61.2116 14.4329C60.9328 15.2462 60.794 16.1 60.8008 16.9585C60.8057 17.7348 60.8269 18.731 61.2591 19.4063C61.3633 19.5796 61.5031 19.7294 61.6695 19.846C61.9774 20.0559 62.2886 20.0836 62.6123 20.1066C63.0961 20.1408 63.5648 20.0236 64.032 19.917L68.5833 18.879L68.5871 18.8804Z" fill="#FF1A1A"/>
<path d="M83.8718 11.7015C83.4977 10.9266 82.9948 10.2193 82.384 9.60875C82.305 9.53128 82.2204 9.45955 82.1308 9.39422C82.0481 9.33297 81.9621 9.27603 81.8734 9.22358C81.7821 9.17421 81.6882 9.12966 81.5921 9.09018C81.4021 9.01654 81.1985 8.98338 80.9946 8.99277C80.7996 9.00374 80.6094 9.05644 80.437 9.14728C80.1758 9.27545 79.8931 9.4815 79.5171 9.82651C79.4651 9.87746 79.3999 9.9349 79.3412 9.98909C79.031 10.277 78.6859 10.6319 78.2752 11.0452C77.6408 11.678 77.016 12.3143 76.3951 12.9574L75.2842 14.0946C75.0807 14.3024 74.8954 14.5268 74.7304 14.7655C74.5898 14.9672 74.4903 15.194 74.4375 15.4333C74.4069 15.6169 74.4114 15.8044 74.4507 15.9861C74.4527 15.9945 74.4544 16.0023 74.4564 16.0105C74.5441 16.3872 74.7764 16.7154 75.1044 16.926C75.4324 17.1367 75.8305 17.2134 76.2148 17.14C76.2756 17.1312 76.3229 17.1209 76.3516 17.114L82.275 15.7631C82.7418 15.6567 83.2155 15.5591 83.6349 15.3188C83.9162 15.1578 84.1837 14.9982 84.3672 14.6762C84.4653 14.4993 84.5247 14.3041 84.5415 14.1032C84.6324 13.3065 84.2108 12.4016 83.8718 11.7015Z" fill="#FF1A1A"/>
<path d="M73.2704 14.1601C73.6996 13.6279 73.6985 12.8345 73.7369 12.186C73.8661 10.019 74.0022 7.85182 74.11 5.68369C74.1512 4.86246 74.2408 4.05237 74.1913 3.22491C74.1505 2.54229 74.1455 1.75854 73.7089 1.19834C72.9381 0.210465 71.2945 0.291656 70.173 0.444891C69.8294 0.491957 69.4854 0.555235 69.144 0.636122C68.8026 0.717009 68.4647 0.805351 68.1342 0.909837C67.0581 1.25775 65.5453 1.89636 65.2892 3.12016C65.1447 3.81201 65.487 4.51973 65.7524 5.15112C66.0742 5.91648 66.5137 6.60591 66.9143 7.32637C67.9734 9.22841 69.0521 11.1186 70.1278 13.0107C70.4491 13.5756 70.7992 14.291 71.4207 14.5836C71.4618 14.6013 71.5037 14.617 71.5464 14.6305C71.8251 14.7347 72.1289 14.7548 72.4193 14.6882C72.4368 14.6842 72.454 14.6803 72.471 14.6764C72.7392 14.6044 72.982 14.4605 73.1724 14.2606C73.2068 14.2288 73.2396 14.1953 73.2704 14.1601Z" fill="#FF1A1A"/>
<path d="M72.7565 19.9615C72.5891 19.7288 72.3512 19.5545 72.0773 19.4634C71.8033 19.3722 71.5071 19.369 71.231 19.4542C71.1661 19.4754 71.103 19.5013 71.0419 19.5316C70.9475 19.5791 70.8574 19.6345 70.7727 19.6973C70.5258 19.8778 70.318 20.1124 70.1287 20.3476C70.0807 20.4076 70.0368 20.4875 69.9797 20.5387L69.0269 21.8323C68.4869 22.557 67.9544 23.2835 67.4263 24.0216C67.0817 24.498 66.7836 24.9004 66.5482 25.2564C66.5036 25.3235 66.4573 25.3983 66.4148 25.4579C66.1326 25.8889 65.9729 26.2033 65.8909 26.4834C65.8292 26.6696 65.8097 26.8668 65.8337 27.0611C65.86 27.2636 65.929 27.4582 66.0364 27.6325C66.0935 27.72 66.155 27.8045 66.2208 27.8859C66.2891 27.9641 66.3617 28.0386 66.4381 28.109C66.5198 28.1859 66.6072 28.2567 66.6995 28.3209C67.3571 28.7725 68.0771 29.097 68.8344 29.3477C69.4645 29.5542 70.1195 29.6777 70.7825 29.7152C70.8952 29.7208 71.0083 29.7184 71.1208 29.708C71.2249 29.699 71.3286 29.6846 71.4313 29.665C71.534 29.6413 71.6352 29.6123 71.7347 29.578C71.9283 29.5065 72.1046 29.3957 72.2522 29.2527C72.3919 29.1147 72.4995 28.9482 72.5672 28.7648C72.6774 28.4939 72.7498 28.1498 72.7975 27.6391C72.8016 27.5664 72.8121 27.4793 72.8195 27.3995C72.857 26.9757 72.8743 26.4779 72.9019 25.8926C72.9485 24.9926 72.985 24.0964 73.0139 23.1977C73.0139 23.1977 73.0753 21.6006 73.0751 21.5997C73.0891 21.2317 73.0776 20.8238 72.9742 20.4574C72.9288 20.2818 72.8553 20.1144 72.7565 19.9615Z" fill="#FF1A1A"/>
<path d="M83.5115 22.4614C83.3127 22.2462 83.0309 22.0316 82.5864 21.7664C82.5223 21.731 82.4471 21.6839 82.3778 21.6428C82.0077 21.4232 81.562 21.1921 81.0413 20.913C80.2415 20.4795 79.4412 20.057 78.6332 19.638L77.2056 18.8907C77.1316 18.8694 77.0564 18.8166 76.9867 18.7834C76.7124 18.654 76.4217 18.5331 76.1199 18.4777C76.0159 18.458 75.9104 18.4472 75.8044 18.4454C75.7361 18.4446 75.6679 18.4487 75.6002 18.4576C75.3148 18.5013 75.0506 18.6328 74.8452 18.8334C74.6398 19.0341 74.5037 19.2936 74.4564 19.575C74.4346 19.754 74.4412 19.9352 74.476 20.1122C74.5458 20.4871 74.7154 20.8581 74.8909 21.1829L75.6533 22.593C76.0775 23.3885 76.5068 24.1792 76.9468 24.9674C77.2307 25.4817 77.467 25.9216 77.6883 26.2864C77.7303 26.355 77.7778 26.4289 77.8137 26.4924C78.0831 26.9308 78.2995 27.2068 78.519 27.4048C78.6611 27.5402 78.8315 27.6434 79.0182 27.707C79.2145 27.7712 79.4221 27.794 79.6279 27.7738C79.7325 27.7616 79.8364 27.7439 79.9392 27.7207C80.0404 27.6938 80.1401 27.6618 80.2379 27.6248C80.3435 27.5855 80.446 27.5387 80.5448 27.4848C81.1244 27.1641 81.6585 26.7693 82.1336 26.3107C82.7035 25.7573 83.2071 25.1538 83.5989 24.4629C83.6534 24.3652 83.7005 24.2637 83.7401 24.1592C83.777 24.0625 83.809 23.964 83.8358 23.8642C83.859 23.7627 83.8768 23.6601 83.8891 23.5567C83.9085 23.3538 83.8846 23.1491 83.8189 22.9559C83.7543 22.7708 83.6494 22.602 83.5115 22.4614Z" fill="#FF1A1A"/>
<path fill-rule="evenodd" clip-rule="evenodd" d="M34.3591 8.7432C34.3591 7.58113 35.3183 6.63184 36.4759 6.63184C37.617 6.63184 38.543 7.58113 38.5926 8.75957V25.2412C38.5926 26.4033 37.6335 27.3526 36.4759 27.3526C35.2852 27.3526 34.3591 26.4033 34.3591 25.2412V8.7432ZM32.3909 18.9235C32.3743 19.2508 32.2916 19.8564 31.8617 20.2984C31.3986 20.773 30.7702 20.8876 30.4064 20.8876C28.8932 20.8957 27.3802 20.8999 25.8671 20.9039C24.3539 20.908 22.8406 20.9121 21.3274 20.9203C21.4597 21.3295 21.7243 21.9514 22.3197 22.5243C22.6835 22.868 23.0308 23.0644 23.1796 23.1462C23.3615 23.2608 23.9899 23.5881 24.7672 23.5881C25.594 23.5881 26.3217 23.3262 27.0328 22.9662L27.0922 22.9358C27.5864 22.6831 28.0964 22.4222 28.6369 22.3279C29.1661 22.246 29.7284 22.3442 30.1418 22.7043C30.6379 23.1298 30.8363 23.7518 30.6544 24.3901C30.4394 25.1102 29.8276 25.7322 29.1826 26.1086C28.8188 26.3214 28.4219 26.5015 28.025 26.6488C27.5124 26.8288 26.9832 26.9598 26.454 27.0416C25.9247 27.1234 25.3791 27.1562 24.8333 27.1398C24.5687 27.1398 24.2876 27.1398 24.0064 27.107C23.7088 27.0743 23.4111 27.0089 23.13 26.9434C22.667 26.8452 22.237 26.6979 21.807 26.5015C21.3935 26.3214 20.9802 26.0923 20.5998 25.8305C20.2194 25.5685 19.8721 25.2576 19.5414 24.9302C19.2271 24.6029 18.9295 24.2428 18.665 23.85C17.7719 22.5079 17.3584 20.8548 17.4411 19.2508C17.5073 17.6796 18.0365 16.1083 18.9956 14.8318C19.0996 14.6718 19.2195 14.5359 19.3331 14.407C19.3823 14.3513 19.4303 14.2969 19.4752 14.2425C20.6597 12.8133 22.2422 12.3609 22.895 12.1743L22.9316 12.1639C24.8003 11.6402 26.3547 11.9838 26.9832 12.1639C27.2974 12.2457 29.0669 12.7858 30.4394 14.2425C30.5056 14.308 30.6875 14.5207 30.919 14.8318C31.7886 16.0008 32.0884 17.0894 32.19 17.4582L32.1924 17.4668C32.2916 17.8269 32.3909 18.3179 32.3909 18.9235ZM22.6835 16.223C21.7243 16.9922 21.4597 17.9742 21.3935 18.2852H28.6038C28.5377 17.9906 28.2565 16.9922 27.2974 16.223C26.3217 15.4536 25.2964 15.4046 24.9822 15.4046C24.668 15.4046 23.6426 15.4536 22.6835 16.223ZM50.1023 11.8857C48.217 11.8857 46.4971 12.7204 45.2734 14.0789V14.0298C45.2238 12.9331 44.2976 12.0493 43.1731 12.0493C41.9989 12.0493 41.0564 12.9822 41.0564 14.1443V29.8731C41.0564 31.0352 41.9989 31.9681 43.1731 31.9681C44.3473 31.9681 45.2899 31.0352 45.2899 29.8731V29.2675V24.963C46.5136 26.3051 48.217 27.1562 50.1188 27.1562C53.9058 27.1562 56.9818 23.7682 56.9818 19.5455C56.9653 15.3227 53.8893 11.8857 50.1023 11.8857ZM49.1762 23.7355C47.0263 23.7355 45.2734 21.886 45.2734 19.5782C45.2734 17.254 47.0098 15.4046 49.1762 15.4046C51.326 15.4046 53.0789 17.254 53.0789 19.5782C53.0624 21.886 51.326 23.7355 49.1762 23.7355ZM14.266 20.642L13.5715 22.1478C13.2573 22.8025 12.9431 23.4736 12.6454 24.1446C12.5504 24.3506 12.4548 24.5607 12.3578 24.7737C11.036 27.6765 9.46731 31.1216 6.04703 31.8535C4.3933 32.2136 1.89617 31.7226 0.970081 30.184C0.0439925 28.6292 1.41659 26.8451 3.18608 27.2543C3.46517 27.3158 3.7396 27.4508 4.01637 27.587C4.47758 27.814 4.94526 28.0441 5.45169 27.9418C5.93127 27.8599 6.22894 27.5162 6.6093 27.0743C7.13849 26.4687 7.37001 25.8305 7.46924 25.454C7.46097 25.4376 7.4527 25.4171 7.44443 25.3967C7.43616 25.3762 7.42789 25.3558 7.41962 25.3394C6.98914 24.5467 6.61319 23.8381 6.29913 23.246C6.09441 22.8601 5.91599 22.5237 5.7659 22.246C5.45794 21.6699 5.22531 21.2343 5.0444 20.8955C4.51614 19.9064 4.42891 19.7431 4.19486 19.3163C3.6822 18.3507 3.13646 17.4177 2.5742 16.4848C1.96232 15.47 1.3339 14.3407 1.84656 13.1459C2.25999 12.1802 3.31838 11.6892 4.32715 12.0002C5.39155 12.3191 5.86291 13.3187 6.30372 14.2536C6.38342 14.4226 6.46212 14.5895 6.54315 14.7499C7.25426 16.1411 7.94882 17.5323 8.64339 18.9235C8.70453 19.0618 8.79798 19.2504 8.91154 19.4796C9.01297 19.6842 9.13047 19.9213 9.25527 20.1837C9.32053 20.3201 9.3826 20.4471 9.43876 20.5618C9.5106 20.7086 9.57266 20.8355 9.61906 20.9366C9.94158 20.1428 10.2682 19.3532 10.5948 18.5635C10.9214 17.7738 11.248 16.984 11.5705 16.1902C11.5795 16.1458 11.6564 15.9765 11.7724 15.7213C11.8704 15.5055 11.9964 15.2284 12.1327 14.9135C12.1789 14.806 12.2253 14.6944 12.2728 14.5802C12.7023 13.5478 13.2187 12.3064 14.3653 11.9675C15.1922 11.7219 16.1183 12.0493 16.5978 12.7367C16.8459 13.0804 16.9451 13.4732 16.9616 13.866C16.9749 14.7347 16.5498 15.6669 16.185 16.4668C16.0961 16.6617 16.0108 16.8486 15.9364 17.0249C15.9329 17.0316 15.9185 17.0637 15.8925 17.1212C15.7916 17.3449 15.5168 17.9538 15.0433 18.9563C14.8724 19.3156 14.7085 19.675 14.5424 20.0388C14.4514 20.2383 14.3598 20.4392 14.266 20.642Z" fill="#1B1F1E"/>
<path d="M58.5864 25.7785H58.7397C58.8153 25.7785 58.876 25.7594 58.9213 25.7211C58.9677 25.6818 58.9909 25.6324 58.9909 25.5726C58.9909 25.5026 58.9705 25.4526 58.9299 25.4227C58.8892 25.3919 58.8248 25.3765 58.7368 25.3765H58.5864V25.7785ZM59.2024 25.567C59.2024 25.6417 59.182 25.708 59.1413 25.766C59.1016 25.8229 59.0453 25.8654 58.9725 25.8934L59.3102 26.4468H59.0717L58.778 25.9508H58.5864V26.4468H58.3763V25.1986H58.7468C58.9038 25.1986 59.0188 25.2289 59.0916 25.2896C59.1655 25.3504 59.2024 25.4428 59.2024 25.567ZM57.7021 25.822C57.7021 25.6352 57.7495 25.4601 57.8441 25.2967C57.9387 25.1332 58.0688 25.0044 58.2344 24.91C58.4 24.8157 58.5784 24.7686 58.7694 24.7686C58.9587 24.7686 59.1361 24.8153 59.3017 24.9086C59.4673 25.002 59.5979 25.1304 59.6934 25.2939C59.789 25.4573 59.8368 25.6333 59.8368 25.822C59.8368 26.0059 59.7909 26.1787 59.6991 26.3403C59.6073 26.5019 59.4786 26.6312 59.3131 26.7283C59.1474 26.8254 58.9663 26.874 58.7694 26.874C58.5736 26.874 58.3929 26.8259 58.2273 26.7297C58.0617 26.6326 57.9325 26.5032 57.8398 26.3417C57.748 26.1801 57.7021 26.0069 57.7021 25.822ZM57.8512 25.822C57.8512 25.9836 57.8924 26.1348 57.9747 26.2758C58.057 26.4159 58.1691 26.5266 58.3111 26.6078C58.4539 26.6881 58.6067 26.7283 58.7694 26.7283C58.9341 26.7283 59.0869 26.6877 59.2279 26.6064C59.3688 26.5251 59.4805 26.4154 59.5629 26.2772C59.6461 26.1381 59.6877 25.9863 59.6877 25.822C59.6877 25.6595 59.6466 25.5086 59.5643 25.3695C59.4819 25.2304 59.3703 25.1201 59.2293 25.0389C59.0893 24.9567 58.936 24.9156 58.7694 24.9156C58.6048 24.9156 58.452 24.9562 58.3111 25.0375C58.1701 25.1187 58.0579 25.2289 57.9747 25.3681C57.8924 25.5063 57.8512 25.6576 57.8512 25.822Z" fill="#1B1F1E"/>
</g>
<defs>
<clipPath id="clip0_1_2998">
<rect width="84.2105" height="32" fill="white" transform="translate(0.672363)"/>
</clipPath>
</defs>
</svg>
