<svg xmlns="http://www.w3.org/2000/svg" viewBox="0 0 400 100">
  <defs>
    <linearGradient id="goldGradient" x1="0%" y1="0%" x2="100%" y2="0%">
      <stop offset="0%" style="stop-color:#c9922b"/>
      <stop offset="50%" style="stop-color:#e5b03d"/>
      <stop offset="100%" style="stop-color:#c9922b"/>
    </linearGradient>
  </defs>
  <!-- MRG Letters -->
  <g fill="none" stroke="url(#goldGradient)" stroke-width="2">
    <!-- M -->
    <path d="M10 80 L10 20 L35 50 L60 20 L60 80"/>
    <!-- R -->
    <path d="M75 80 L75 20 L100 20 Q115 20 115 35 Q115 50 100 50 L75 50 M100 50 L115 80"/>
    <!-- G -->
    <path d="M130 35 Q130 20 150 20 L170 20 M170 20 L170 80 L130 80 L130 50 L155 50"/>
  </g>
  <!-- Text -->
  <text x="190" y="35" font-family="Georgia, serif" font-size="18" fill="#c9922b">Maison</text>
  <text x="190" y="55" font-family="Georgia, serif" font-size="18" fill="#c9922b">Remodeling</text>
  <text x="190" y="75" font-family="Georgia, serif" font-size="18" fill="#c9922b">Group</text>
  <text x="190" y="95" font-family="Arial, sans-serif" font-size="12" fill="#a08050">Design &amp; Build</text>
</svg>