<?xml version="1.0"?>
<svg xmlns="http://www.w3.org/2000/svg" enable-background="new 0 0 340.2 22.5" viewBox="0 0 340.2 22.5"><g fill="#000"><path d="m152.7 18.4h-7.4v-5.6h7.3v-3.4h-7.3v-5.5h7.4v-3.4h-11.5v21.2h11.5z"/><path d="m130.5 18.1h-6.6v-17.6h-4.1v21.2h10.7z"/><path d="m104 17.6c-.5.6-1.3.8-2.2.8h-3.9v-6.1h3.9c.9 0 1.6.3 2.1.9.6.6.8 1.3.8 2.2.1.9-.1 1.7-.7 2.2m-6.1-13.8h2.9c.7 0 1.2.2 1.7.7.4.5.7 1.1.7 1.7 0 .8-.2 1.4-.6 1.9-.4.6-1 .9-1.8.9h-2.8v-5.2zm9.9 8.2c-.9-1.2-2-1.8-3.2-1.8v-.1c1.7-.7 2.6-2.2 2.6-4.4 0-1.4-.5-2.7-1.4-3.7-.9-1.1-2.1-1.6-3.5-1.6h-8.3v21.2h9.2c1.7 0 3.1-.6 4.2-1.8s1.7-2.7 1.7-4.4c0-1.1-.5-2.3-1.3-3.4"/><path d="m71.9 10.2v-6.4h2.1c2.3 0 3.4 1 3.4 3.1 0 1-.3 1.8-.8 2.4-.6.6-1.3 1-2.3 1h-2.4zm4.6 2.5c1.6-.3 2.8-1 3.8-2s1.4-2.3 1.4-3.9c0-1.9-.6-3.4-1.8-4.6s-2.7-1.8-4.6-1.8h-7.3v21.2h4v-9.1l6.3 9.1h5z"/><path d="m43.5 14.1 3.4-9 3.1 9zm5.6-13.6h-4.4l-8.4 21.2h4.2l1.7-4.3h8.9l1.6 4.3h4.5z"/><path d="m11.8 21.7h1.9l5.5-14.9 2.3 14.9h4.1l-3.5-21.2h-4.1l-5.2 13.8-5.1-13.8h-4.2l-3.5 21.2h4l2.2-14.8z"/><path d="m334.2 12.4c2.1.9 3.2 2.1 3.2 3.6 0 1.1-.4 2-1.2 2.6s-1.8 1-3 1c-1.9 0-3.5-.9-4.9-2.6l-2 1.8c2.1 2.3 4.4 3.4 7 3.4 1.8 0 3.4-.6 4.8-1.8s2-2.7 2-4.5c0-2.7-1.4-4.7-4.1-5.8-1.8-.7-2.8-1.2-3.3-1.3-1.8-.6-2.7-1.6-2.7-3.1 0-1 .4-1.7 1.1-2.3.7-.5 1.5-.8 2.5-.8 1.4 0 2.6.6 3.8 1.8l1.6-1.9c-1.5-1.6-3.3-2.4-5.3-2.4-1.8 0-3.3.5-4.5 1.6-1.3 1.1-1.9 2.5-1.9 4.3 0 2.5 1.3 4.2 4 5.3 1.4.5 2.4.9 2.9 1.1"/><path d="m303.9 22.5 6.3-14.1 2.6 13.3h2.8l-4.3-21.6-7.4 16.3-7.5-16.4-4.3 21.7h2.8l2.4-13.3z"/><path d="m281.4 21.7v-2.7h-7.9v-7.6h7.7v-2.7h-7.7v-5.6h7.9v-2.6h-10.8v21.2z"/><path d="m259.9 3.2v-2.7h-12.2v2.7h4.7v18.5h2.8v-18.5z"/><path d="m231.1 12.4c2.1.9 3.2 2.1 3.2 3.6 0 1.1-.4 2-1.2 2.6s-1.8 1-3 1c-1.9 0-3.5-.9-4.9-2.6l-2 1.8c2.1 2.3 4.4 3.4 7 3.4 1.8 0 3.4-.6 4.8-1.8s2-2.7 2-4.5c0-2.7-1.4-4.7-4.1-5.8-1.8-.7-2.8-1.2-3.3-1.3-1.8-.6-2.7-1.6-2.7-3.1 0-1 .4-1.7 1.1-2.3.7-.5 1.5-.8 2.5-.8 1.3 0 2.6.6 3.8 1.8l1.6-1.9c-1.5-1.6-3.3-2.4-5.3-2.4-1.8 0-3.3.5-4.5 1.6-1.3 1.1-1.9 2.5-1.9 4.3 0 2.5 1.3 4.2 4 5.3 1.3.5 2.3.9 2.9 1.1"/><path d="m202.9 21.7h2.8v-9.1l6.8-12.1h-3.3l-4.8 9.1-5-9.1h-3.4l6.9 12z"/><path d="m179.4 12.4c2.1.9 3.2 2.1 3.2 3.6 0 1.1-.4 2-1.2 2.6s-1.8 1-3 1c-1.9 0-3.5-.9-4.9-2.6l-2 1.8c2.1 2.3 4.4 3.4 7 3.4 1.8 0 3.4-.6 4.8-1.8s2-2.7 2-4.5c0-2.7-1.4-4.7-4.1-5.8-1.8-.7-2.8-1.2-3.3-1.3-1.8-.6-2.7-1.6-2.7-3.1 0-1 .4-1.7 1.1-2.3.7-.5 1.5-.8 2.5-.8 1.3 0 2.6.6 3.8 1.8l1.6-1.9c-1.5-1.6-3.3-2.4-5.3-2.4-1.8 0-3.3.5-4.5 1.6-1.3 1.1-1.9 2.5-1.9 4.3 0 2.5 1.3 4.2 4 5.3 1.3.5 2.3.9 2.9 1.1"/></g></svg>
